<mxfile host="app.diagrams.net" modified="2024-01-16T15:30:12.020Z" agent="Mozilla/5.0 (X11; Linux x86_64) AppleWebKit/537.36 (KHTML, like Gecko) Chrome/114.0.0.0 Safari/537.36" etag="T7IKcRTJUiwGtPHhFni5" version="22.1.19" type="github">
  <diagram name="Página-1" id="TUS5gieN1rz3YTIe_Czn">
    <mxGraphModel dx="1235" dy="638" grid="1" gridSize="10" guides="1" tooltips="1" connect="1" arrows="1" fold="1" page="1" pageScale="1" pageWidth="827" pageHeight="1169" math="0" shadow="0">
      <root>
        <mxCell id="0" />
        <mxCell id="1" parent="0" />
        <mxCell id="yeNCh0Bpv_U7AYHqmpKk-1" value="Libro" style="swimlane;align=center;verticalAlign=middle;childLayout=stackLayout;horizontal=1;startSize=26;horizontalStack=0;resizeParent=1;resizeParentMax=0;resizeLast=0;collapsible=1;marginBottom=0;fillColor=#dae8fc;strokeColor=#6c8ebf;" parent="1" vertex="1">
          <mxGeometry x="799.94" y="549" width="260" height="620" as="geometry">
            <mxRectangle x="320" y="80" width="220" height="30" as="alternateBounds" />
          </mxGeometry>
        </mxCell>
        <mxCell id="yeNCh0Bpv_U7AYHqmpKk-3" value="- Título: Texto/String" style="text;strokeColor=none;fillColor=none;align=left;verticalAlign=middle;spacingLeft=4;spacingRight=4;overflow=hidden;rotatable=0;points=[[0,0.5],[1,0.5]];portConstraint=eastwest;" parent="yeNCh0Bpv_U7AYHqmpKk-1" vertex="1">
          <mxGeometry y="26" width="260" height="34" as="geometry" />
        </mxCell>
        <mxCell id="yeNCh0Bpv_U7AYHqmpKk-9" value="- ISBN: Int" style="text;strokeColor=none;fillColor=none;align=left;verticalAlign=middle;spacingLeft=4;spacingRight=4;overflow=hidden;rotatable=0;points=[[0,0.5],[1,0.5]];portConstraint=eastwest;" parent="yeNCh0Bpv_U7AYHqmpKk-1" vertex="1">
          <mxGeometry y="60" width="260" height="34" as="geometry" />
        </mxCell>
        <mxCell id="yeNCh0Bpv_U7AYHqmpKk-10" value="- Autor: Texto/String" style="text;strokeColor=none;fillColor=none;align=left;verticalAlign=middle;spacingLeft=4;spacingRight=4;overflow=hidden;rotatable=0;points=[[0,0.5],[1,0.5]];portConstraint=eastwest;" parent="yeNCh0Bpv_U7AYHqmpKk-1" vertex="1">
          <mxGeometry y="94" width="260" height="34" as="geometry" />
        </mxCell>
        <mxCell id="yeNCh0Bpv_U7AYHqmpKk-11" value="- Año de Publicación: Int" style="text;strokeColor=none;fillColor=none;align=left;verticalAlign=middle;spacingLeft=4;spacingRight=4;overflow=hidden;rotatable=0;points=[[0,0.5],[1,0.5]];portConstraint=eastwest;" parent="yeNCh0Bpv_U7AYHqmpKk-1" vertex="1">
          <mxGeometry y="128" width="260" height="34" as="geometry" />
        </mxCell>
        <mxCell id="yeNCh0Bpv_U7AYHqmpKk-12" value="- Numero de Copias: Int" style="text;strokeColor=none;fillColor=none;align=left;verticalAlign=middle;spacingLeft=4;spacingRight=4;overflow=hidden;rotatable=0;points=[[0,0.5],[1,0.5]];portConstraint=eastwest;" parent="yeNCh0Bpv_U7AYHqmpKk-1" vertex="1">
          <mxGeometry y="162" width="260" height="34" as="geometry" />
        </mxCell>
        <mxCell id="yeNCh0Bpv_U7AYHqmpKk-4" value="" style="line;strokeWidth=1;fillColor=none;align=left;verticalAlign=middle;spacingTop=-1;spacingLeft=3;spacingRight=3;rotatable=0;labelPosition=right;points=[];portConstraint=eastwest;strokeColor=inherit;" parent="yeNCh0Bpv_U7AYHqmpKk-1" vertex="1">
          <mxGeometry y="196" width="260" height="8" as="geometry" />
        </mxCell>
        <mxCell id="yeNCh0Bpv_U7AYHqmpKk-16" value="+ getTítulo(): String" style="text;strokeColor=none;fillColor=none;align=left;verticalAlign=middle;spacingLeft=4;spacingRight=4;overflow=hidden;rotatable=0;points=[[0,0.5],[1,0.5]];portConstraint=eastwest;" parent="yeNCh0Bpv_U7AYHqmpKk-1" vertex="1">
          <mxGeometry y="204" width="260" height="32" as="geometry" />
        </mxCell>
        <mxCell id="yeNCh0Bpv_U7AYHqmpKk-15" value="+ setTítulo(type String): void" style="text;strokeColor=none;fillColor=none;align=left;verticalAlign=middle;spacingLeft=4;spacingRight=4;overflow=hidden;rotatable=0;points=[[0,0.5],[1,0.5]];portConstraint=eastwest;" parent="yeNCh0Bpv_U7AYHqmpKk-1" vertex="1">
          <mxGeometry y="236" width="260" height="32" as="geometry" />
        </mxCell>
        <mxCell id="yeNCh0Bpv_U7AYHqmpKk-17" value="+ getISBN(): Int" style="text;strokeColor=none;fillColor=none;align=left;verticalAlign=middle;spacingLeft=4;spacingRight=4;overflow=hidden;rotatable=0;points=[[0,0.5],[1,0.5]];portConstraint=eastwest;" parent="yeNCh0Bpv_U7AYHqmpKk-1" vertex="1">
          <mxGeometry y="268" width="260" height="32" as="geometry" />
        </mxCell>
        <mxCell id="yeNCh0Bpv_U7AYHqmpKk-18" value="+ setISBN(type Int): void" style="text;strokeColor=none;fillColor=none;align=left;verticalAlign=middle;spacingLeft=4;spacingRight=4;overflow=hidden;rotatable=0;points=[[0,0.5],[1,0.5]];portConstraint=eastwest;" parent="yeNCh0Bpv_U7AYHqmpKk-1" vertex="1">
          <mxGeometry y="300" width="260" height="32" as="geometry" />
        </mxCell>
        <mxCell id="yeNCh0Bpv_U7AYHqmpKk-19" value="+ getAutor(): String" style="text;strokeColor=none;fillColor=none;align=left;verticalAlign=middle;spacingLeft=4;spacingRight=4;overflow=hidden;rotatable=0;points=[[0,0.5],[1,0.5]];portConstraint=eastwest;" parent="yeNCh0Bpv_U7AYHqmpKk-1" vertex="1">
          <mxGeometry y="332" width="260" height="32" as="geometry" />
        </mxCell>
        <mxCell id="yeNCh0Bpv_U7AYHqmpKk-20" value="+ setAutor(type String): void" style="text;strokeColor=none;fillColor=none;align=left;verticalAlign=middle;spacingLeft=4;spacingRight=4;overflow=hidden;rotatable=0;points=[[0,0.5],[1,0.5]];portConstraint=eastwest;" parent="yeNCh0Bpv_U7AYHqmpKk-1" vertex="1">
          <mxGeometry y="364" width="260" height="32" as="geometry" />
        </mxCell>
        <mxCell id="yeNCh0Bpv_U7AYHqmpKk-21" value="+ getAñoPublicación(): Int" style="text;strokeColor=none;fillColor=none;align=left;verticalAlign=middle;spacingLeft=4;spacingRight=4;overflow=hidden;rotatable=0;points=[[0,0.5],[1,0.5]];portConstraint=eastwest;" parent="yeNCh0Bpv_U7AYHqmpKk-1" vertex="1">
          <mxGeometry y="396" width="260" height="32" as="geometry" />
        </mxCell>
        <mxCell id="yeNCh0Bpv_U7AYHqmpKk-22" value="+ setAñoPublicación(type Int): void" style="text;strokeColor=none;fillColor=none;align=left;verticalAlign=middle;spacingLeft=4;spacingRight=4;overflow=hidden;rotatable=0;points=[[0,0.5],[1,0.5]];portConstraint=eastwest;" parent="yeNCh0Bpv_U7AYHqmpKk-1" vertex="1">
          <mxGeometry y="428" width="260" height="32" as="geometry" />
        </mxCell>
        <mxCell id="yeNCh0Bpv_U7AYHqmpKk-23" value="+ getNumeroCopias(): Int" style="text;strokeColor=none;fillColor=none;align=left;verticalAlign=middle;spacingLeft=4;spacingRight=4;overflow=hidden;rotatable=0;points=[[0,0.5],[1,0.5]];portConstraint=eastwest;" parent="yeNCh0Bpv_U7AYHqmpKk-1" vertex="1">
          <mxGeometry y="460" width="260" height="32" as="geometry" />
        </mxCell>
        <mxCell id="yeNCh0Bpv_U7AYHqmpKk-24" value="+ setNumeroCopias(type Int): void" style="text;strokeColor=none;fillColor=none;align=left;verticalAlign=middle;spacingLeft=4;spacingRight=4;overflow=hidden;rotatable=0;points=[[0,0.5],[1,0.5]];portConstraint=eastwest;" parent="yeNCh0Bpv_U7AYHqmpKk-1" vertex="1">
          <mxGeometry y="492" width="260" height="32" as="geometry" />
        </mxCell>
        <mxCell id="yeNCh0Bpv_U7AYHqmpKk-25" value="+ obtenerInformacion()" style="text;strokeColor=none;fillColor=none;align=left;verticalAlign=middle;spacingLeft=4;spacingRight=4;overflow=hidden;rotatable=0;points=[[0,0.5],[1,0.5]];portConstraint=eastwest;" parent="yeNCh0Bpv_U7AYHqmpKk-1" vertex="1">
          <mxGeometry y="524" width="260" height="32" as="geometry" />
        </mxCell>
        <mxCell id="yeNCh0Bpv_U7AYHqmpKk-26" value="+ prestarLibro()" style="text;strokeColor=none;fillColor=none;align=left;verticalAlign=middle;spacingLeft=4;spacingRight=4;overflow=hidden;rotatable=0;points=[[0,0.5],[1,0.5]];portConstraint=eastwest;" parent="yeNCh0Bpv_U7AYHqmpKk-1" vertex="1">
          <mxGeometry y="556" width="260" height="32" as="geometry" />
        </mxCell>
        <mxCell id="yeNCh0Bpv_U7AYHqmpKk-27" value="+ devolverLibro()" style="text;strokeColor=none;fillColor=none;align=left;verticalAlign=middle;spacingLeft=4;spacingRight=4;overflow=hidden;rotatable=0;points=[[0,0.5],[1,0.5]];portConstraint=eastwest;" parent="yeNCh0Bpv_U7AYHqmpKk-1" vertex="1">
          <mxGeometry y="588" width="260" height="32" as="geometry" />
        </mxCell>
        <mxCell id="yeNCh0Bpv_U7AYHqmpKk-28" value="Usuario" style="swimlane;align=center;verticalAlign=middle;childLayout=stackLayout;horizontal=1;startSize=26;horizontalStack=0;resizeParent=1;resizeParentMax=0;resizeLast=0;collapsible=1;marginBottom=0;fillColor=#d5e8d4;strokeColor=#82b366;" parent="1" vertex="1">
          <mxGeometry x="1590" y="549" width="260" height="424" as="geometry">
            <mxRectangle x="320" y="80" width="220" height="30" as="alternateBounds" />
          </mxGeometry>
        </mxCell>
        <mxCell id="yeNCh0Bpv_U7AYHqmpKk-29" value="- Nombre: Texto/String" style="text;strokeColor=none;fillColor=none;align=left;verticalAlign=middle;spacingLeft=4;spacingRight=4;overflow=hidden;rotatable=0;points=[[0,0.5],[1,0.5]];portConstraint=eastwest;" parent="yeNCh0Bpv_U7AYHqmpKk-28" vertex="1">
          <mxGeometry y="26" width="260" height="34" as="geometry" />
        </mxCell>
        <mxCell id="yeNCh0Bpv_U7AYHqmpKk-30" value="- Numero Identificador: Int" style="text;strokeColor=none;fillColor=none;align=left;verticalAlign=middle;spacingLeft=4;spacingRight=4;overflow=hidden;rotatable=0;points=[[0,0.5],[1,0.5]];portConstraint=eastwest;" parent="yeNCh0Bpv_U7AYHqmpKk-28" vertex="1">
          <mxGeometry y="60" width="260" height="34" as="geometry" />
        </mxCell>
        <mxCell id="yeNCh0Bpv_U7AYHqmpKk-31" value="- Historial de Préstamos: Texto/String" style="text;strokeColor=none;fillColor=none;align=left;verticalAlign=middle;spacingLeft=4;spacingRight=4;overflow=hidden;rotatable=0;points=[[0,0.5],[1,0.5]];portConstraint=eastwest;" parent="yeNCh0Bpv_U7AYHqmpKk-28" vertex="1">
          <mxGeometry y="94" width="260" height="34" as="geometry" />
        </mxCell>
        <mxCell id="yeNCh0Bpv_U7AYHqmpKk-34" value="" style="line;strokeWidth=1;fillColor=none;align=left;verticalAlign=middle;spacingTop=-1;spacingLeft=3;spacingRight=3;rotatable=0;labelPosition=right;points=[];portConstraint=eastwest;strokeColor=inherit;" parent="yeNCh0Bpv_U7AYHqmpKk-28" vertex="1">
          <mxGeometry y="128" width="260" height="8" as="geometry" />
        </mxCell>
        <mxCell id="yeNCh0Bpv_U7AYHqmpKk-35" value="+ getNombre(): String" style="text;strokeColor=none;fillColor=none;align=left;verticalAlign=middle;spacingLeft=4;spacingRight=4;overflow=hidden;rotatable=0;points=[[0,0.5],[1,0.5]];portConstraint=eastwest;" parent="yeNCh0Bpv_U7AYHqmpKk-28" vertex="1">
          <mxGeometry y="136" width="260" height="32" as="geometry" />
        </mxCell>
        <mxCell id="yeNCh0Bpv_U7AYHqmpKk-36" value="+ setNombre(type String): void" style="text;strokeColor=none;fillColor=none;align=left;verticalAlign=middle;spacingLeft=4;spacingRight=4;overflow=hidden;rotatable=0;points=[[0,0.5],[1,0.5]];portConstraint=eastwest;" parent="yeNCh0Bpv_U7AYHqmpKk-28" vertex="1">
          <mxGeometry y="168" width="260" height="32" as="geometry" />
        </mxCell>
        <mxCell id="yeNCh0Bpv_U7AYHqmpKk-37" value="+ getNumeroIdentificador(): Int" style="text;strokeColor=none;fillColor=none;align=left;verticalAlign=middle;spacingLeft=4;spacingRight=4;overflow=hidden;rotatable=0;points=[[0,0.5],[1,0.5]];portConstraint=eastwest;" parent="yeNCh0Bpv_U7AYHqmpKk-28" vertex="1">
          <mxGeometry y="200" width="260" height="32" as="geometry" />
        </mxCell>
        <mxCell id="yeNCh0Bpv_U7AYHqmpKk-38" value="+ setNumeroIdentificador(type Int): void" style="text;strokeColor=none;fillColor=none;align=left;verticalAlign=middle;spacingLeft=4;spacingRight=4;overflow=hidden;rotatable=0;points=[[0,0.5],[1,0.5]];portConstraint=eastwest;" parent="yeNCh0Bpv_U7AYHqmpKk-28" vertex="1">
          <mxGeometry y="232" width="260" height="32" as="geometry" />
        </mxCell>
        <mxCell id="yeNCh0Bpv_U7AYHqmpKk-48" value="+ getHistorialPréstamos(): String" style="text;strokeColor=none;fillColor=none;align=left;verticalAlign=middle;spacingLeft=4;spacingRight=4;overflow=hidden;rotatable=0;points=[[0,0.5],[1,0.5]];portConstraint=eastwest;" parent="yeNCh0Bpv_U7AYHqmpKk-28" vertex="1">
          <mxGeometry y="264" width="260" height="32" as="geometry" />
        </mxCell>
        <mxCell id="yeNCh0Bpv_U7AYHqmpKk-49" value="+ setHistorialPréstamos(type String): void" style="text;strokeColor=none;fillColor=none;align=left;verticalAlign=middle;spacingLeft=4;spacingRight=4;overflow=hidden;rotatable=0;points=[[0,0.5],[1,0.5]];portConstraint=eastwest;" parent="yeNCh0Bpv_U7AYHqmpKk-28" vertex="1">
          <mxGeometry y="296" width="260" height="32" as="geometry" />
        </mxCell>
        <mxCell id="yeNCh0Bpv_U7AYHqmpKk-51" value="+ solicitarPrestamo()" style="text;strokeColor=none;fillColor=none;align=left;verticalAlign=middle;spacingLeft=4;spacingRight=4;overflow=hidden;rotatable=0;points=[[0,0.5],[1,0.5]];portConstraint=eastwest;" parent="yeNCh0Bpv_U7AYHqmpKk-28" vertex="1">
          <mxGeometry y="328" width="260" height="32" as="geometry" />
        </mxCell>
        <mxCell id="yeNCh0Bpv_U7AYHqmpKk-53" value="+ devolverLibro()" style="text;strokeColor=none;fillColor=none;align=left;verticalAlign=middle;spacingLeft=4;spacingRight=4;overflow=hidden;rotatable=0;points=[[0,0.5],[1,0.5]];portConstraint=eastwest;" parent="yeNCh0Bpv_U7AYHqmpKk-28" vertex="1">
          <mxGeometry y="360" width="260" height="32" as="geometry" />
        </mxCell>
        <mxCell id="yeNCh0Bpv_U7AYHqmpKk-54" value="+ consultarHistorial()" style="text;strokeColor=none;fillColor=none;align=left;verticalAlign=middle;spacingLeft=4;spacingRight=4;overflow=hidden;rotatable=0;points=[[0,0.5],[1,0.5]];portConstraint=eastwest;" parent="yeNCh0Bpv_U7AYHqmpKk-28" vertex="1">
          <mxGeometry y="392" width="260" height="32" as="geometry" />
        </mxCell>
        <mxCell id="yeNCh0Bpv_U7AYHqmpKk-55" value="Préstamo" style="swimlane;align=center;verticalAlign=middle;childLayout=stackLayout;horizontal=1;startSize=26;horizontalStack=0;resizeParent=1;resizeParentMax=0;resizeLast=0;collapsible=1;marginBottom=0;fillColor=#e1d5e7;strokeColor=#9673a6;" parent="1" vertex="1">
          <mxGeometry x="2400" y="549" width="260" height="490" as="geometry">
            <mxRectangle x="320" y="80" width="220" height="30" as="alternateBounds" />
          </mxGeometry>
        </mxCell>
        <mxCell id="yeNCh0Bpv_U7AYHqmpKk-56" value="- LibroPrestado: Texto/String" style="text;strokeColor=none;fillColor=none;align=left;verticalAlign=middle;spacingLeft=4;spacingRight=4;overflow=hidden;rotatable=0;points=[[0,0.5],[1,0.5]];portConstraint=eastwest;" parent="yeNCh0Bpv_U7AYHqmpKk-55" vertex="1">
          <mxGeometry y="26" width="260" height="34" as="geometry" />
        </mxCell>
        <mxCell id="yeNCh0Bpv_U7AYHqmpKk-57" value="- Fecha de Préstamo: Int" style="text;strokeColor=none;fillColor=none;align=left;verticalAlign=middle;spacingLeft=4;spacingRight=4;overflow=hidden;rotatable=0;points=[[0,0.5],[1,0.5]];portConstraint=eastwest;" parent="yeNCh0Bpv_U7AYHqmpKk-55" vertex="1">
          <mxGeometry y="60" width="260" height="34" as="geometry" />
        </mxCell>
        <mxCell id="yeNCh0Bpv_U7AYHqmpKk-69" value="- Fecha de Devolución Prevista: Int" style="text;strokeColor=none;fillColor=none;align=left;verticalAlign=middle;spacingLeft=4;spacingRight=4;overflow=hidden;rotatable=0;points=[[0,0.5],[1,0.5]];portConstraint=eastwest;" parent="yeNCh0Bpv_U7AYHqmpKk-55" vertex="1">
          <mxGeometry y="94" width="260" height="34" as="geometry" />
        </mxCell>
        <mxCell id="yeNCh0Bpv_U7AYHqmpKk-58" value="- UsuarioSolicitó: Texto/String" style="text;strokeColor=none;fillColor=none;align=left;verticalAlign=middle;spacingLeft=4;spacingRight=4;overflow=hidden;rotatable=0;points=[[0,0.5],[1,0.5]];portConstraint=eastwest;" parent="yeNCh0Bpv_U7AYHqmpKk-55" vertex="1">
          <mxGeometry y="128" width="260" height="34" as="geometry" />
        </mxCell>
        <mxCell id="yeNCh0Bpv_U7AYHqmpKk-59" value="" style="line;strokeWidth=1;fillColor=none;align=left;verticalAlign=middle;spacingTop=-1;spacingLeft=3;spacingRight=3;rotatable=0;labelPosition=right;points=[];portConstraint=eastwest;strokeColor=inherit;" parent="yeNCh0Bpv_U7AYHqmpKk-55" vertex="1">
          <mxGeometry y="162" width="260" height="8" as="geometry" />
        </mxCell>
        <mxCell id="yeNCh0Bpv_U7AYHqmpKk-60" value="+ getLibroPrestado(): String" style="text;strokeColor=none;fillColor=none;align=left;verticalAlign=middle;spacingLeft=4;spacingRight=4;overflow=hidden;rotatable=0;points=[[0,0.5],[1,0.5]];portConstraint=eastwest;" parent="yeNCh0Bpv_U7AYHqmpKk-55" vertex="1">
          <mxGeometry y="170" width="260" height="32" as="geometry" />
        </mxCell>
        <mxCell id="yeNCh0Bpv_U7AYHqmpKk-61" value="+ setLibroPrestado(type String): void" style="text;strokeColor=none;fillColor=none;align=left;verticalAlign=middle;spacingLeft=4;spacingRight=4;overflow=hidden;rotatable=0;points=[[0,0.5],[1,0.5]];portConstraint=eastwest;" parent="yeNCh0Bpv_U7AYHqmpKk-55" vertex="1">
          <mxGeometry y="202" width="260" height="32" as="geometry" />
        </mxCell>
        <mxCell id="yeNCh0Bpv_U7AYHqmpKk-62" value="+ getFechaPréstamo(): Int" style="text;strokeColor=none;fillColor=none;align=left;verticalAlign=middle;spacingLeft=4;spacingRight=4;overflow=hidden;rotatable=0;points=[[0,0.5],[1,0.5]];portConstraint=eastwest;" parent="yeNCh0Bpv_U7AYHqmpKk-55" vertex="1">
          <mxGeometry y="234" width="260" height="32" as="geometry" />
        </mxCell>
        <mxCell id="yeNCh0Bpv_U7AYHqmpKk-63" value="+ setFechaPréstamo(type Int): void" style="text;strokeColor=none;fillColor=none;align=left;verticalAlign=middle;spacingLeft=4;spacingRight=4;overflow=hidden;rotatable=0;points=[[0,0.5],[1,0.5]];portConstraint=eastwest;" parent="yeNCh0Bpv_U7AYHqmpKk-55" vertex="1">
          <mxGeometry y="266" width="260" height="32" as="geometry" />
        </mxCell>
        <mxCell id="yeNCh0Bpv_U7AYHqmpKk-70" value="+ getFechaDevoluciónPrevista(): Int" style="text;strokeColor=none;fillColor=none;align=left;verticalAlign=middle;spacingLeft=4;spacingRight=4;overflow=hidden;rotatable=0;points=[[0,0.5],[1,0.5]];portConstraint=eastwest;" parent="yeNCh0Bpv_U7AYHqmpKk-55" vertex="1">
          <mxGeometry y="298" width="260" height="32" as="geometry" />
        </mxCell>
        <mxCell id="yeNCh0Bpv_U7AYHqmpKk-71" value="+ setFechaDevoluciónPrevista(type Int): void" style="text;strokeColor=none;fillColor=none;align=left;verticalAlign=middle;spacingLeft=4;spacingRight=4;overflow=hidden;rotatable=0;points=[[0,0.5],[1,0.5]];portConstraint=eastwest;" parent="yeNCh0Bpv_U7AYHqmpKk-55" vertex="1">
          <mxGeometry y="330" width="260" height="32" as="geometry" />
        </mxCell>
        <mxCell id="yeNCh0Bpv_U7AYHqmpKk-64" value="+ getUsuarioSolicitó(): String" style="text;strokeColor=none;fillColor=none;align=left;verticalAlign=middle;spacingLeft=4;spacingRight=4;overflow=hidden;rotatable=0;points=[[0,0.5],[1,0.5]];portConstraint=eastwest;" parent="yeNCh0Bpv_U7AYHqmpKk-55" vertex="1">
          <mxGeometry y="362" width="260" height="32" as="geometry" />
        </mxCell>
        <mxCell id="yeNCh0Bpv_U7AYHqmpKk-65" value="+ setUsuarioSolicitó(type String): void" style="text;strokeColor=none;fillColor=none;align=left;verticalAlign=middle;spacingLeft=4;spacingRight=4;overflow=hidden;rotatable=0;points=[[0,0.5],[1,0.5]];portConstraint=eastwest;" parent="yeNCh0Bpv_U7AYHqmpKk-55" vertex="1">
          <mxGeometry y="394" width="260" height="32" as="geometry" />
        </mxCell>
        <mxCell id="yeNCh0Bpv_U7AYHqmpKk-66" value="+ calcularMulta()" style="text;strokeColor=none;fillColor=none;align=left;verticalAlign=middle;spacingLeft=4;spacingRight=4;overflow=hidden;rotatable=0;points=[[0,0.5],[1,0.5]];portConstraint=eastwest;" parent="yeNCh0Bpv_U7AYHqmpKk-55" vertex="1">
          <mxGeometry y="426" width="260" height="32" as="geometry" />
        </mxCell>
        <mxCell id="yeNCh0Bpv_U7AYHqmpKk-67" value="+ renovarPrestamo()" style="text;strokeColor=none;fillColor=none;align=left;verticalAlign=middle;spacingLeft=4;spacingRight=4;overflow=hidden;rotatable=0;points=[[0,0.5],[1,0.5]];portConstraint=eastwest;" parent="yeNCh0Bpv_U7AYHqmpKk-55" vertex="1">
          <mxGeometry y="458" width="260" height="32" as="geometry" />
        </mxCell>
        <mxCell id="yeNCh0Bpv_U7AYHqmpKk-72" value="Biblioteca" style="swimlane;align=center;verticalAlign=middle;childLayout=stackLayout;horizontal=1;startSize=26;horizontalStack=0;resizeParent=1;resizeParentMax=0;resizeLast=0;collapsible=1;marginBottom=0;fillColor=#f8cecc;strokeColor=#b85450;" parent="1" vertex="1">
          <mxGeometry x="1019.94" y="40" width="380" height="424" as="geometry">
            <mxRectangle x="320" y="80" width="220" height="30" as="alternateBounds" />
          </mxGeometry>
        </mxCell>
        <mxCell id="yeNCh0Bpv_U7AYHqmpKk-73" value="- lista LibrosDisponibles: Libros Disponibles" style="text;align=left;verticalAlign=middle;spacingLeft=4;spacingRight=4;overflow=hidden;rotatable=0;points=[[0,0.5],[1,0.5]];portConstraint=eastwest;labelBackgroundColor=none;" parent="yeNCh0Bpv_U7AYHqmpKk-72" vertex="1">
          <mxGeometry y="26" width="380" height="34" as="geometry" />
        </mxCell>
        <mxCell id="yeNCh0Bpv_U7AYHqmpKk-80" value="- lista UsuariosRegistrados: UsuariosRegistrados" style="text;align=left;verticalAlign=middle;spacingLeft=4;spacingRight=4;overflow=hidden;rotatable=0;points=[[0,0.5],[1,0.5]];portConstraint=eastwest;labelBackgroundColor=none;" parent="yeNCh0Bpv_U7AYHqmpKk-72" vertex="1">
          <mxGeometry y="60" width="380" height="34" as="geometry" />
        </mxCell>
        <mxCell id="yeNCh0Bpv_U7AYHqmpKk-81" value="- lista HistorialPréstamos: Préstamos" style="text;align=left;verticalAlign=middle;spacingLeft=4;spacingRight=4;overflow=hidden;rotatable=0;points=[[0,0.5],[1,0.5]];portConstraint=eastwest;labelBackgroundColor=none;" parent="yeNCh0Bpv_U7AYHqmpKk-72" vertex="1">
          <mxGeometry y="94" width="380" height="34" as="geometry" />
        </mxCell>
        <mxCell id="yeNCh0Bpv_U7AYHqmpKk-75" value="" style="line;strokeWidth=1;fillColor=none;align=left;verticalAlign=middle;spacingTop=-1;spacingLeft=3;spacingRight=3;rotatable=0;labelPosition=right;points=[];portConstraint=eastwest;strokeColor=inherit;" parent="yeNCh0Bpv_U7AYHqmpKk-72" vertex="1">
          <mxGeometry y="128" width="380" height="8" as="geometry" />
        </mxCell>
        <mxCell id="yeNCh0Bpv_U7AYHqmpKk-77" value="+ getListLibrosDisponibles(): List&lt;LibrosDisponibles&gt;" style="text;strokeColor=none;fillColor=none;align=left;verticalAlign=middle;spacingLeft=4;spacingRight=4;overflow=hidden;rotatable=0;points=[[0,0.5],[1,0.5]];portConstraint=eastwest;" parent="yeNCh0Bpv_U7AYHqmpKk-72" vertex="1">
          <mxGeometry y="136" width="380" height="32" as="geometry" />
        </mxCell>
        <mxCell id="yeNCh0Bpv_U7AYHqmpKk-76" value="+ setListLibrosDisponibles(type List&lt;LibrosDisponibles&gt;): void" style="text;strokeColor=none;fillColor=none;align=left;verticalAlign=middle;spacingLeft=4;spacingRight=4;overflow=hidden;rotatable=0;points=[[0,0.5],[1,0.5]];portConstraint=eastwest;" parent="yeNCh0Bpv_U7AYHqmpKk-72" vertex="1">
          <mxGeometry y="168" width="380" height="32" as="geometry" />
        </mxCell>
        <mxCell id="yeNCh0Bpv_U7AYHqmpKk-82" value="+ getListUsuariosRegistrados(): List&lt;UsuariosRegistrados&gt;" style="text;strokeColor=none;fillColor=none;align=left;verticalAlign=middle;spacingLeft=4;spacingRight=4;overflow=hidden;rotatable=0;points=[[0,0.5],[1,0.5]];portConstraint=eastwest;" parent="yeNCh0Bpv_U7AYHqmpKk-72" vertex="1">
          <mxGeometry y="200" width="380" height="32" as="geometry" />
        </mxCell>
        <mxCell id="yeNCh0Bpv_U7AYHqmpKk-83" value="+ setListUsuariosRegistrados(type List&lt;UsuariosRegistrados&gt;): void" style="text;strokeColor=none;fillColor=none;align=left;verticalAlign=middle;spacingLeft=4;spacingRight=4;overflow=hidden;rotatable=0;points=[[0,0.5],[1,0.5]];portConstraint=eastwest;" parent="yeNCh0Bpv_U7AYHqmpKk-72" vertex="1">
          <mxGeometry y="232" width="380" height="32" as="geometry" />
        </mxCell>
        <mxCell id="yeNCh0Bpv_U7AYHqmpKk-84" value="+ getListHistorialPréstamos(): List&lt;HistorialPréstamos&gt;" style="text;strokeColor=none;fillColor=none;align=left;verticalAlign=middle;spacingLeft=4;spacingRight=4;overflow=hidden;rotatable=0;points=[[0,0.5],[1,0.5]];portConstraint=eastwest;" parent="yeNCh0Bpv_U7AYHqmpKk-72" vertex="1">
          <mxGeometry y="264" width="380" height="32" as="geometry" />
        </mxCell>
        <mxCell id="yeNCh0Bpv_U7AYHqmpKk-85" value="+ setListHistorialPréstamos(type List&lt;HistorialPréstamos&gt;): void" style="text;strokeColor=none;fillColor=none;align=left;verticalAlign=middle;spacingLeft=4;spacingRight=4;overflow=hidden;rotatable=0;points=[[0,0.5],[1,0.5]];portConstraint=eastwest;" parent="yeNCh0Bpv_U7AYHqmpKk-72" vertex="1">
          <mxGeometry y="296" width="380" height="32" as="geometry" />
        </mxCell>
        <mxCell id="yeNCh0Bpv_U7AYHqmpKk-86" value="+ buscarLibro()" style="text;strokeColor=none;fillColor=none;align=left;verticalAlign=middle;spacingLeft=4;spacingRight=4;overflow=hidden;rotatable=0;points=[[0,0.5],[1,0.5]];portConstraint=eastwest;" parent="yeNCh0Bpv_U7AYHqmpKk-72" vertex="1">
          <mxGeometry y="328" width="380" height="32" as="geometry" />
        </mxCell>
        <mxCell id="yeNCh0Bpv_U7AYHqmpKk-87" value="+ registrarUsuario()" style="text;strokeColor=none;fillColor=none;align=left;verticalAlign=middle;spacingLeft=4;spacingRight=4;overflow=hidden;rotatable=0;points=[[0,0.5],[1,0.5]];portConstraint=eastwest;" parent="yeNCh0Bpv_U7AYHqmpKk-72" vertex="1">
          <mxGeometry y="360" width="380" height="32" as="geometry" />
        </mxCell>
        <mxCell id="yeNCh0Bpv_U7AYHqmpKk-88" value="+ realizarPrestamo()" style="text;strokeColor=none;fillColor=none;align=left;verticalAlign=middle;spacingLeft=4;spacingRight=4;overflow=hidden;rotatable=0;points=[[0,0.5],[1,0.5]];portConstraint=eastwest;" parent="yeNCh0Bpv_U7AYHqmpKk-72" vertex="1">
          <mxGeometry y="392" width="380" height="32" as="geometry" />
        </mxCell>
        <mxCell id="yeNCh0Bpv_U7AYHqmpKk-89" value="EmpleadoBiblioteca" style="swimlane;align=center;verticalAlign=middle;childLayout=stackLayout;horizontal=1;startSize=26;horizontalStack=0;resizeParent=1;resizeParentMax=0;resizeLast=0;collapsible=1;marginBottom=0;fillColor=#f8cecc;strokeColor=#b85450;" parent="1" vertex="1">
          <mxGeometry x="1540" y="40" width="260" height="392" as="geometry">
            <mxRectangle x="320" y="80" width="220" height="30" as="alternateBounds" />
          </mxGeometry>
        </mxCell>
        <mxCell id="yeNCh0Bpv_U7AYHqmpKk-90" value="- Nombre: Texto/String" style="text;strokeColor=none;fillColor=none;align=left;verticalAlign=middle;spacingLeft=4;spacingRight=4;overflow=hidden;rotatable=0;points=[[0,0.5],[1,0.5]];portConstraint=eastwest;" parent="yeNCh0Bpv_U7AYHqmpKk-89" vertex="1">
          <mxGeometry y="26" width="260" height="34" as="geometry" />
        </mxCell>
        <mxCell id="yeNCh0Bpv_U7AYHqmpKk-91" value="- Numero de Empleado: Int" style="text;strokeColor=none;fillColor=none;align=left;verticalAlign=middle;spacingLeft=4;spacingRight=4;overflow=hidden;rotatable=0;points=[[0,0.5],[1,0.5]];portConstraint=eastwest;" parent="yeNCh0Bpv_U7AYHqmpKk-89" vertex="1">
          <mxGeometry y="60" width="260" height="34" as="geometry" />
        </mxCell>
        <mxCell id="yeNCh0Bpv_U7AYHqmpKk-92" value="- Horario: Texto/String" style="text;strokeColor=none;fillColor=none;align=left;verticalAlign=middle;spacingLeft=4;spacingRight=4;overflow=hidden;rotatable=0;points=[[0,0.5],[1,0.5]];portConstraint=eastwest;" parent="yeNCh0Bpv_U7AYHqmpKk-89" vertex="1">
          <mxGeometry y="94" width="260" height="34" as="geometry" />
        </mxCell>
        <mxCell id="yeNCh0Bpv_U7AYHqmpKk-93" value="" style="line;strokeWidth=1;fillColor=none;align=left;verticalAlign=middle;spacingTop=-1;spacingLeft=3;spacingRight=3;rotatable=0;labelPosition=right;points=[];portConstraint=eastwest;strokeColor=inherit;" parent="yeNCh0Bpv_U7AYHqmpKk-89" vertex="1">
          <mxGeometry y="128" width="260" height="8" as="geometry" />
        </mxCell>
        <mxCell id="yeNCh0Bpv_U7AYHqmpKk-94" value="+ getNombre(): String" style="text;strokeColor=none;fillColor=none;align=left;verticalAlign=middle;spacingLeft=4;spacingRight=4;overflow=hidden;rotatable=0;points=[[0,0.5],[1,0.5]];portConstraint=eastwest;" parent="yeNCh0Bpv_U7AYHqmpKk-89" vertex="1">
          <mxGeometry y="136" width="260" height="32" as="geometry" />
        </mxCell>
        <mxCell id="yeNCh0Bpv_U7AYHqmpKk-95" value="+ setNombre(type String): void" style="text;strokeColor=none;fillColor=none;align=left;verticalAlign=middle;spacingLeft=4;spacingRight=4;overflow=hidden;rotatable=0;points=[[0,0.5],[1,0.5]];portConstraint=eastwest;" parent="yeNCh0Bpv_U7AYHqmpKk-89" vertex="1">
          <mxGeometry y="168" width="260" height="32" as="geometry" />
        </mxCell>
        <mxCell id="yeNCh0Bpv_U7AYHqmpKk-96" value="+ getNumeroEmpleado(): Int" style="text;strokeColor=none;fillColor=none;align=left;verticalAlign=middle;spacingLeft=4;spacingRight=4;overflow=hidden;rotatable=0;points=[[0,0.5],[1,0.5]];portConstraint=eastwest;" parent="yeNCh0Bpv_U7AYHqmpKk-89" vertex="1">
          <mxGeometry y="200" width="260" height="32" as="geometry" />
        </mxCell>
        <mxCell id="yeNCh0Bpv_U7AYHqmpKk-97" value="+ setNumeroEmpleado(type Int): void" style="text;strokeColor=none;fillColor=none;align=left;verticalAlign=middle;spacingLeft=4;spacingRight=4;overflow=hidden;rotatable=0;points=[[0,0.5],[1,0.5]];portConstraint=eastwest;" parent="yeNCh0Bpv_U7AYHqmpKk-89" vertex="1">
          <mxGeometry y="232" width="260" height="32" as="geometry" />
        </mxCell>
        <mxCell id="yeNCh0Bpv_U7AYHqmpKk-98" value="+ getHorario(): String" style="text;strokeColor=none;fillColor=none;align=left;verticalAlign=middle;spacingLeft=4;spacingRight=4;overflow=hidden;rotatable=0;points=[[0,0.5],[1,0.5]];portConstraint=eastwest;" parent="yeNCh0Bpv_U7AYHqmpKk-89" vertex="1">
          <mxGeometry y="264" width="260" height="32" as="geometry" />
        </mxCell>
        <mxCell id="yeNCh0Bpv_U7AYHqmpKk-99" value="+ setHorario(type String): void" style="text;strokeColor=none;fillColor=none;align=left;verticalAlign=middle;spacingLeft=4;spacingRight=4;overflow=hidden;rotatable=0;points=[[0,0.5],[1,0.5]];portConstraint=eastwest;" parent="yeNCh0Bpv_U7AYHqmpKk-89" vertex="1">
          <mxGeometry y="296" width="260" height="32" as="geometry" />
        </mxCell>
        <mxCell id="yeNCh0Bpv_U7AYHqmpKk-100" value="+ procesarPrestamo()" style="text;strokeColor=none;fillColor=none;align=left;verticalAlign=middle;spacingLeft=4;spacingRight=4;overflow=hidden;rotatable=0;points=[[0,0.5],[1,0.5]];portConstraint=eastwest;" parent="yeNCh0Bpv_U7AYHqmpKk-89" vertex="1">
          <mxGeometry y="328" width="260" height="32" as="geometry" />
        </mxCell>
        <mxCell id="yeNCh0Bpv_U7AYHqmpKk-101" value="+ gestionarDevolucion()" style="text;strokeColor=none;fillColor=none;align=left;verticalAlign=middle;spacingLeft=4;spacingRight=4;overflow=hidden;rotatable=0;points=[[0,0.5],[1,0.5]];portConstraint=eastwest;" parent="yeNCh0Bpv_U7AYHqmpKk-89" vertex="1">
          <mxGeometry y="360" width="260" height="32" as="geometry" />
        </mxCell>
        <mxCell id="yeNCh0Bpv_U7AYHqmpKk-103" value="CategoríaLibro" style="swimlane;align=center;verticalAlign=middle;childLayout=stackLayout;horizontal=1;startSize=26;horizontalStack=0;resizeParent=1;resizeParentMax=0;resizeLast=0;collapsible=1;marginBottom=0;fillColor=#fad7ac;strokeColor=#b46504;" parent="1" vertex="1">
          <mxGeometry x="300" y="140" width="340" height="392" as="geometry">
            <mxRectangle x="320" y="80" width="220" height="30" as="alternateBounds" />
          </mxGeometry>
        </mxCell>
        <mxCell id="yeNCh0Bpv_U7AYHqmpKk-104" value="- Nombre Categoría: Texto/String" style="text;strokeColor=none;fillColor=none;align=left;verticalAlign=middle;spacingLeft=4;spacingRight=4;overflow=hidden;rotatable=0;points=[[0,0.5],[1,0.5]];portConstraint=eastwest;" parent="yeNCh0Bpv_U7AYHqmpKk-103" vertex="1">
          <mxGeometry y="26" width="340" height="34" as="geometry" />
        </mxCell>
        <mxCell id="yeNCh0Bpv_U7AYHqmpKk-116" value="- lista Libros en la Categoría: Libros Categoría" style="text;align=left;verticalAlign=middle;spacingLeft=4;spacingRight=4;overflow=hidden;rotatable=0;points=[[0,0.5],[1,0.5]];portConstraint=eastwest;labelBackgroundColor=none;" parent="yeNCh0Bpv_U7AYHqmpKk-103" vertex="1">
          <mxGeometry y="60" width="340" height="34" as="geometry" />
        </mxCell>
        <mxCell id="yeNCh0Bpv_U7AYHqmpKk-106" value="- Descripción: Texto/String" style="text;strokeColor=none;fillColor=none;align=left;verticalAlign=middle;spacingLeft=4;spacingRight=4;overflow=hidden;rotatable=0;points=[[0,0.5],[1,0.5]];portConstraint=eastwest;" parent="yeNCh0Bpv_U7AYHqmpKk-103" vertex="1">
          <mxGeometry y="94" width="340" height="34" as="geometry" />
        </mxCell>
        <mxCell id="yeNCh0Bpv_U7AYHqmpKk-107" value="" style="line;strokeWidth=1;fillColor=none;align=left;verticalAlign=middle;spacingTop=-1;spacingLeft=3;spacingRight=3;rotatable=0;labelPosition=right;points=[];portConstraint=eastwest;strokeColor=inherit;" parent="yeNCh0Bpv_U7AYHqmpKk-103" vertex="1">
          <mxGeometry y="128" width="340" height="8" as="geometry" />
        </mxCell>
        <mxCell id="yeNCh0Bpv_U7AYHqmpKk-108" value="+ getNombreCategoría(): String" style="text;strokeColor=none;fillColor=none;align=left;verticalAlign=middle;spacingLeft=4;spacingRight=4;overflow=hidden;rotatable=0;points=[[0,0.5],[1,0.5]];portConstraint=eastwest;" parent="yeNCh0Bpv_U7AYHqmpKk-103" vertex="1">
          <mxGeometry y="136" width="340" height="32" as="geometry" />
        </mxCell>
        <mxCell id="yeNCh0Bpv_U7AYHqmpKk-109" value="+ setNombreCategoría(type String): void" style="text;strokeColor=none;fillColor=none;align=left;verticalAlign=middle;spacingLeft=4;spacingRight=4;overflow=hidden;rotatable=0;points=[[0,0.5],[1,0.5]];portConstraint=eastwest;" parent="yeNCh0Bpv_U7AYHqmpKk-103" vertex="1">
          <mxGeometry y="168" width="340" height="32" as="geometry" />
        </mxCell>
        <mxCell id="yeNCh0Bpv_U7AYHqmpKk-112" value="+ getDescripción(): String" style="text;strokeColor=none;fillColor=none;align=left;verticalAlign=middle;spacingLeft=4;spacingRight=4;overflow=hidden;rotatable=0;points=[[0,0.5],[1,0.5]];portConstraint=eastwest;" parent="yeNCh0Bpv_U7AYHqmpKk-103" vertex="1">
          <mxGeometry y="200" width="340" height="32" as="geometry" />
        </mxCell>
        <mxCell id="yeNCh0Bpv_U7AYHqmpKk-113" value="+ setDescripción(type String): void" style="text;strokeColor=none;fillColor=none;align=left;verticalAlign=middle;spacingLeft=4;spacingRight=4;overflow=hidden;rotatable=0;points=[[0,0.5],[1,0.5]];portConstraint=eastwest;" parent="yeNCh0Bpv_U7AYHqmpKk-103" vertex="1">
          <mxGeometry y="232" width="340" height="32" as="geometry" />
        </mxCell>
        <mxCell id="yeNCh0Bpv_U7AYHqmpKk-117" value="+ getListLibrosCategoría(): List&lt;LibrosCategoría&gt;" style="text;strokeColor=none;fillColor=none;align=left;verticalAlign=middle;spacingLeft=4;spacingRight=4;overflow=hidden;rotatable=0;points=[[0,0.5],[1,0.5]];portConstraint=eastwest;" parent="yeNCh0Bpv_U7AYHqmpKk-103" vertex="1">
          <mxGeometry y="264" width="340" height="32" as="geometry" />
        </mxCell>
        <mxCell id="yeNCh0Bpv_U7AYHqmpKk-118" value="+ setListLibrosCategoría(type List&lt;LibrosCategoría&gt;): void" style="text;strokeColor=none;fillColor=none;align=left;verticalAlign=middle;spacingLeft=4;spacingRight=4;overflow=hidden;rotatable=0;points=[[0,0.5],[1,0.5]];portConstraint=eastwest;" parent="yeNCh0Bpv_U7AYHqmpKk-103" vertex="1">
          <mxGeometry y="296" width="340" height="32" as="geometry" />
        </mxCell>
        <mxCell id="yeNCh0Bpv_U7AYHqmpKk-114" value="+ agregarLibro()" style="text;strokeColor=none;fillColor=none;align=left;verticalAlign=middle;spacingLeft=4;spacingRight=4;overflow=hidden;rotatable=0;points=[[0,0.5],[1,0.5]];portConstraint=eastwest;" parent="yeNCh0Bpv_U7AYHqmpKk-103" vertex="1">
          <mxGeometry y="328" width="340" height="32" as="geometry" />
        </mxCell>
        <mxCell id="yeNCh0Bpv_U7AYHqmpKk-115" value="+ quitarLibro()" style="text;strokeColor=none;fillColor=none;align=left;verticalAlign=middle;spacingLeft=4;spacingRight=4;overflow=hidden;rotatable=0;points=[[0,0.5],[1,0.5]];portConstraint=eastwest;" parent="yeNCh0Bpv_U7AYHqmpKk-103" vertex="1">
          <mxGeometry y="360" width="340" height="32" as="geometry" />
        </mxCell>
        <mxCell id="yeNCh0Bpv_U7AYHqmpKk-119" value="Reserva" style="swimlane;align=center;verticalAlign=middle;childLayout=stackLayout;horizontal=1;startSize=26;horizontalStack=0;resizeParent=1;resizeParentMax=0;resizeLast=0;collapsible=1;marginBottom=0;fillColor=#b1ddf0;strokeColor=#10739e;" parent="1" vertex="1">
          <mxGeometry x="1640" y="1050" width="260" height="424" as="geometry">
            <mxRectangle x="320" y="80" width="220" height="30" as="alternateBounds" />
          </mxGeometry>
        </mxCell>
        <mxCell id="yeNCh0Bpv_U7AYHqmpKk-120" value="- Usuario que Reservó: Usuario" style="text;strokeColor=none;fillColor=none;align=left;verticalAlign=middle;spacingLeft=4;spacingRight=4;overflow=hidden;rotatable=0;points=[[0,0.5],[1,0.5]];portConstraint=eastwest;" parent="yeNCh0Bpv_U7AYHqmpKk-119" vertex="1">
          <mxGeometry y="26" width="260" height="34" as="geometry" />
        </mxCell>
        <mxCell id="yeNCh0Bpv_U7AYHqmpKk-122" value="- Libro Reservado: Texto/String" style="text;strokeColor=none;fillColor=none;align=left;verticalAlign=middle;spacingLeft=4;spacingRight=4;overflow=hidden;rotatable=0;points=[[0,0.5],[1,0.5]];portConstraint=eastwest;" parent="yeNCh0Bpv_U7AYHqmpKk-119" vertex="1">
          <mxGeometry y="60" width="260" height="34" as="geometry" />
        </mxCell>
        <mxCell id="yeNCh0Bpv_U7AYHqmpKk-121" value="- Fecha Vencimiento Reserva: Int" style="text;strokeColor=none;fillColor=none;align=left;verticalAlign=middle;spacingLeft=4;spacingRight=4;overflow=hidden;rotatable=0;points=[[0,0.5],[1,0.5]];portConstraint=eastwest;" parent="yeNCh0Bpv_U7AYHqmpKk-119" vertex="1">
          <mxGeometry y="94" width="260" height="34" as="geometry" />
        </mxCell>
        <mxCell id="yeNCh0Bpv_U7AYHqmpKk-123" value="" style="line;strokeWidth=1;fillColor=none;align=left;verticalAlign=middle;spacingTop=-1;spacingLeft=3;spacingRight=3;rotatable=0;labelPosition=right;points=[];portConstraint=eastwest;strokeColor=inherit;" parent="yeNCh0Bpv_U7AYHqmpKk-119" vertex="1">
          <mxGeometry y="128" width="260" height="8" as="geometry" />
        </mxCell>
        <mxCell id="j7d310lMBnSI4TyxsEHY-4" value="+ getUsuarioReservó(): String" style="text;strokeColor=none;fillColor=none;align=left;verticalAlign=middle;spacingLeft=4;spacingRight=4;overflow=hidden;rotatable=0;points=[[0,0.5],[1,0.5]];portConstraint=eastwest;" vertex="1" parent="yeNCh0Bpv_U7AYHqmpKk-119">
          <mxGeometry y="136" width="260" height="32" as="geometry" />
        </mxCell>
        <mxCell id="yeNCh0Bpv_U7AYHqmpKk-124" value="+ getUsuarioReservó(): String" style="text;strokeColor=none;fillColor=none;align=left;verticalAlign=middle;spacingLeft=4;spacingRight=4;overflow=hidden;rotatable=0;points=[[0,0.5],[1,0.5]];portConstraint=eastwest;" parent="yeNCh0Bpv_U7AYHqmpKk-119" vertex="1">
          <mxGeometry y="168" width="260" height="32" as="geometry" />
        </mxCell>
        <mxCell id="yeNCh0Bpv_U7AYHqmpKk-125" value="+ setUsuarioReservó(type String): void" style="text;strokeColor=none;fillColor=none;align=left;verticalAlign=middle;spacingLeft=4;spacingRight=4;overflow=hidden;rotatable=0;points=[[0,0.5],[1,0.5]];portConstraint=eastwest;" parent="yeNCh0Bpv_U7AYHqmpKk-119" vertex="1">
          <mxGeometry y="200" width="260" height="32" as="geometry" />
        </mxCell>
        <mxCell id="yeNCh0Bpv_U7AYHqmpKk-128" value="+ getLibroReservado(): String" style="text;strokeColor=none;fillColor=none;align=left;verticalAlign=middle;spacingLeft=4;spacingRight=4;overflow=hidden;rotatable=0;points=[[0,0.5],[1,0.5]];portConstraint=eastwest;" parent="yeNCh0Bpv_U7AYHqmpKk-119" vertex="1">
          <mxGeometry y="232" width="260" height="32" as="geometry" />
        </mxCell>
        <mxCell id="yeNCh0Bpv_U7AYHqmpKk-129" value="+ setLibroReservado(type String): void" style="text;strokeColor=none;fillColor=none;align=left;verticalAlign=middle;spacingLeft=4;spacingRight=4;overflow=hidden;rotatable=0;points=[[0,0.5],[1,0.5]];portConstraint=eastwest;" parent="yeNCh0Bpv_U7AYHqmpKk-119" vertex="1">
          <mxGeometry y="264" width="260" height="32" as="geometry" />
        </mxCell>
        <mxCell id="yeNCh0Bpv_U7AYHqmpKk-126" value="+ getFechaVencimientoReserva(): Int" style="text;strokeColor=none;fillColor=none;align=left;verticalAlign=middle;spacingLeft=4;spacingRight=4;overflow=hidden;rotatable=0;points=[[0,0.5],[1,0.5]];portConstraint=eastwest;" parent="yeNCh0Bpv_U7AYHqmpKk-119" vertex="1">
          <mxGeometry y="296" width="260" height="32" as="geometry" />
        </mxCell>
        <mxCell id="yeNCh0Bpv_U7AYHqmpKk-127" value="+ setFechaVencimientoReserva(type Int): void" style="text;strokeColor=none;fillColor=none;align=left;verticalAlign=middle;spacingLeft=4;spacingRight=4;overflow=hidden;rotatable=0;points=[[0,0.5],[1,0.5]];portConstraint=eastwest;" parent="yeNCh0Bpv_U7AYHqmpKk-119" vertex="1">
          <mxGeometry y="328" width="260" height="32" as="geometry" />
        </mxCell>
        <mxCell id="yeNCh0Bpv_U7AYHqmpKk-130" value="+ confirmarReserva()" style="text;strokeColor=none;fillColor=none;align=left;verticalAlign=middle;spacingLeft=4;spacingRight=4;overflow=hidden;rotatable=0;points=[[0,0.5],[1,0.5]];portConstraint=eastwest;" parent="yeNCh0Bpv_U7AYHqmpKk-119" vertex="1">
          <mxGeometry y="360" width="260" height="32" as="geometry" />
        </mxCell>
        <mxCell id="yeNCh0Bpv_U7AYHqmpKk-131" value="+ cancelarReserva()" style="text;strokeColor=none;fillColor=none;align=left;verticalAlign=middle;spacingLeft=4;spacingRight=4;overflow=hidden;rotatable=0;points=[[0,0.5],[1,0.5]];portConstraint=eastwest;" parent="yeNCh0Bpv_U7AYHqmpKk-119" vertex="1">
          <mxGeometry y="392" width="260" height="32" as="geometry" />
        </mxCell>
        <mxCell id="yeNCh0Bpv_U7AYHqmpKk-133" value="Editorial" style="swimlane;align=center;verticalAlign=middle;childLayout=stackLayout;horizontal=1;startSize=26;horizontalStack=0;resizeParent=1;resizeParentMax=0;resizeLast=0;collapsible=1;marginBottom=0;fillColor=#fad7ac;strokeColor=#b46504;" parent="1" vertex="1">
          <mxGeometry x="300" y="640" width="340" height="294" as="geometry">
            <mxRectangle x="320" y="80" width="220" height="30" as="alternateBounds" />
          </mxGeometry>
        </mxCell>
        <mxCell id="yeNCh0Bpv_U7AYHqmpKk-134" value="- Nombre Editorial: Texto/String" style="text;strokeColor=none;fillColor=none;align=left;verticalAlign=middle;spacingLeft=4;spacingRight=4;overflow=hidden;rotatable=0;points=[[0,0.5],[1,0.5]];portConstraint=eastwest;" parent="yeNCh0Bpv_U7AYHqmpKk-133" vertex="1">
          <mxGeometry y="26" width="340" height="34" as="geometry" />
        </mxCell>
        <mxCell id="yeNCh0Bpv_U7AYHqmpKk-135" value="- lista Libros Publicados: Libros Publicados" style="text;align=left;verticalAlign=middle;spacingLeft=4;spacingRight=4;overflow=hidden;rotatable=0;points=[[0,0.5],[1,0.5]];portConstraint=eastwest;labelBackgroundColor=none;" parent="yeNCh0Bpv_U7AYHqmpKk-133" vertex="1">
          <mxGeometry y="60" width="340" height="34" as="geometry" />
        </mxCell>
        <mxCell id="yeNCh0Bpv_U7AYHqmpKk-137" value="" style="line;strokeWidth=1;fillColor=none;align=left;verticalAlign=middle;spacingTop=-1;spacingLeft=3;spacingRight=3;rotatable=0;labelPosition=right;points=[];portConstraint=eastwest;strokeColor=inherit;" parent="yeNCh0Bpv_U7AYHqmpKk-133" vertex="1">
          <mxGeometry y="94" width="340" height="8" as="geometry" />
        </mxCell>
        <mxCell id="yeNCh0Bpv_U7AYHqmpKk-138" value="+ getNombreEditorial(): String" style="text;strokeColor=none;fillColor=none;align=left;verticalAlign=middle;spacingLeft=4;spacingRight=4;overflow=hidden;rotatable=0;points=[[0,0.5],[1,0.5]];portConstraint=eastwest;" parent="yeNCh0Bpv_U7AYHqmpKk-133" vertex="1">
          <mxGeometry y="102" width="340" height="32" as="geometry" />
        </mxCell>
        <mxCell id="yeNCh0Bpv_U7AYHqmpKk-139" value="+ setNombreEditorial(type String): void" style="text;strokeColor=none;fillColor=none;align=left;verticalAlign=middle;spacingLeft=4;spacingRight=4;overflow=hidden;rotatable=0;points=[[0,0.5],[1,0.5]];portConstraint=eastwest;" parent="yeNCh0Bpv_U7AYHqmpKk-133" vertex="1">
          <mxGeometry y="134" width="340" height="32" as="geometry" />
        </mxCell>
        <mxCell id="yeNCh0Bpv_U7AYHqmpKk-142" value="+ getListLibrosPublicados(): List&lt;LibrosPublicados&gt;" style="text;strokeColor=none;fillColor=none;align=left;verticalAlign=middle;spacingLeft=4;spacingRight=4;overflow=hidden;rotatable=0;points=[[0,0.5],[1,0.5]];portConstraint=eastwest;" parent="yeNCh0Bpv_U7AYHqmpKk-133" vertex="1">
          <mxGeometry y="166" width="340" height="32" as="geometry" />
        </mxCell>
        <mxCell id="yeNCh0Bpv_U7AYHqmpKk-143" value="+ setListLibrosPublicados(type List&lt;LibrosPublicados&gt;): void" style="text;strokeColor=none;fillColor=none;align=left;verticalAlign=middle;spacingLeft=4;spacingRight=4;overflow=hidden;rotatable=0;points=[[0,0.5],[1,0.5]];portConstraint=eastwest;" parent="yeNCh0Bpv_U7AYHqmpKk-133" vertex="1">
          <mxGeometry y="198" width="340" height="32" as="geometry" />
        </mxCell>
        <mxCell id="yeNCh0Bpv_U7AYHqmpKk-144" value="+ agregarLibro()" style="text;strokeColor=none;fillColor=none;align=left;verticalAlign=middle;spacingLeft=4;spacingRight=4;overflow=hidden;rotatable=0;points=[[0,0.5],[1,0.5]];portConstraint=eastwest;" parent="yeNCh0Bpv_U7AYHqmpKk-133" vertex="1">
          <mxGeometry y="230" width="340" height="32" as="geometry" />
        </mxCell>
        <mxCell id="yeNCh0Bpv_U7AYHqmpKk-145" value="+ listarLibrosPublicados()" style="text;strokeColor=none;fillColor=none;align=left;verticalAlign=middle;spacingLeft=4;spacingRight=4;overflow=hidden;rotatable=0;points=[[0,0.5],[1,0.5]];portConstraint=eastwest;" parent="yeNCh0Bpv_U7AYHqmpKk-133" vertex="1">
          <mxGeometry y="262" width="340" height="32" as="geometry" />
        </mxCell>
        <mxCell id="yeNCh0Bpv_U7AYHqmpKk-146" value="Evento" style="swimlane;align=center;verticalAlign=middle;childLayout=stackLayout;horizontal=1;startSize=26;horizontalStack=0;resizeParent=1;resizeParentMax=0;resizeLast=0;collapsible=1;marginBottom=0;fillColor=#fad7ac;strokeColor=#b46504;" parent="1" vertex="1">
          <mxGeometry x="300" y="1000" width="340" height="490" as="geometry">
            <mxRectangle x="320" y="80" width="220" height="30" as="alternateBounds" />
          </mxGeometry>
        </mxCell>
        <mxCell id="yeNCh0Bpv_U7AYHqmpKk-147" value="- Nombre Evento: Texto/String" style="text;strokeColor=none;fillColor=none;align=left;verticalAlign=middle;spacingLeft=4;spacingRight=4;overflow=hidden;rotatable=0;points=[[0,0.5],[1,0.5]];portConstraint=eastwest;" parent="yeNCh0Bpv_U7AYHqmpKk-146" vertex="1">
          <mxGeometry y="26" width="340" height="34" as="geometry" />
        </mxCell>
        <mxCell id="yeNCh0Bpv_U7AYHqmpKk-159" value="- FechaEvento: Int" style="text;strokeColor=none;fillColor=none;align=left;verticalAlign=middle;spacingLeft=4;spacingRight=4;overflow=hidden;rotatable=0;points=[[0,0.5],[1,0.5]];portConstraint=eastwest;" parent="yeNCh0Bpv_U7AYHqmpKk-146" vertex="1">
          <mxGeometry y="60" width="340" height="34" as="geometry" />
        </mxCell>
        <mxCell id="yeNCh0Bpv_U7AYHqmpKk-149" value="- Descripción: Texto/String" style="text;strokeColor=none;fillColor=none;align=left;verticalAlign=middle;spacingLeft=4;spacingRight=4;overflow=hidden;rotatable=0;points=[[0,0.5],[1,0.5]];portConstraint=eastwest;" parent="yeNCh0Bpv_U7AYHqmpKk-146" vertex="1">
          <mxGeometry y="94" width="340" height="34" as="geometry" />
        </mxCell>
        <mxCell id="yeNCh0Bpv_U7AYHqmpKk-148" value="- lista Libros Relacionados con Evento: Libros Evento" style="text;align=left;verticalAlign=middle;spacingLeft=4;spacingRight=4;overflow=hidden;rotatable=0;points=[[0,0.5],[1,0.5]];portConstraint=eastwest;labelBackgroundColor=none;" parent="yeNCh0Bpv_U7AYHqmpKk-146" vertex="1">
          <mxGeometry y="128" width="340" height="34" as="geometry" />
        </mxCell>
        <mxCell id="yeNCh0Bpv_U7AYHqmpKk-150" value="" style="line;strokeWidth=1;fillColor=none;align=left;verticalAlign=middle;spacingTop=-1;spacingLeft=3;spacingRight=3;rotatable=0;labelPosition=right;points=[];portConstraint=eastwest;strokeColor=inherit;" parent="yeNCh0Bpv_U7AYHqmpKk-146" vertex="1">
          <mxGeometry y="162" width="340" height="8" as="geometry" />
        </mxCell>
        <mxCell id="yeNCh0Bpv_U7AYHqmpKk-151" value="+ getNombreEvento(): String" style="text;strokeColor=none;fillColor=none;align=left;verticalAlign=middle;spacingLeft=4;spacingRight=4;overflow=hidden;rotatable=0;points=[[0,0.5],[1,0.5]];portConstraint=eastwest;" parent="yeNCh0Bpv_U7AYHqmpKk-146" vertex="1">
          <mxGeometry y="170" width="340" height="32" as="geometry" />
        </mxCell>
        <mxCell id="yeNCh0Bpv_U7AYHqmpKk-152" value="+ setNombreEvento(type String): void" style="text;strokeColor=none;fillColor=none;align=left;verticalAlign=middle;spacingLeft=4;spacingRight=4;overflow=hidden;rotatable=0;points=[[0,0.5],[1,0.5]];portConstraint=eastwest;" parent="yeNCh0Bpv_U7AYHqmpKk-146" vertex="1">
          <mxGeometry y="202" width="340" height="32" as="geometry" />
        </mxCell>
        <mxCell id="yeNCh0Bpv_U7AYHqmpKk-160" value="+ getFechaEvento(): Int" style="text;strokeColor=none;fillColor=none;align=left;verticalAlign=middle;spacingLeft=4;spacingRight=4;overflow=hidden;rotatable=0;points=[[0,0.5],[1,0.5]];portConstraint=eastwest;" parent="yeNCh0Bpv_U7AYHqmpKk-146" vertex="1">
          <mxGeometry y="234" width="340" height="32" as="geometry" />
        </mxCell>
        <mxCell id="yeNCh0Bpv_U7AYHqmpKk-161" value="+ setFechaEvento(type Int): void" style="text;strokeColor=none;fillColor=none;align=left;verticalAlign=middle;spacingLeft=4;spacingRight=4;overflow=hidden;rotatable=0;points=[[0,0.5],[1,0.5]];portConstraint=eastwest;" parent="yeNCh0Bpv_U7AYHqmpKk-146" vertex="1">
          <mxGeometry y="266" width="340" height="32" as="geometry" />
        </mxCell>
        <mxCell id="yeNCh0Bpv_U7AYHqmpKk-153" value="+ getDescripción(): String" style="text;strokeColor=none;fillColor=none;align=left;verticalAlign=middle;spacingLeft=4;spacingRight=4;overflow=hidden;rotatable=0;points=[[0,0.5],[1,0.5]];portConstraint=eastwest;" parent="yeNCh0Bpv_U7AYHqmpKk-146" vertex="1">
          <mxGeometry y="298" width="340" height="32" as="geometry" />
        </mxCell>
        <mxCell id="yeNCh0Bpv_U7AYHqmpKk-154" value="+ setDescripción(type String): void" style="text;strokeColor=none;fillColor=none;align=left;verticalAlign=middle;spacingLeft=4;spacingRight=4;overflow=hidden;rotatable=0;points=[[0,0.5],[1,0.5]];portConstraint=eastwest;" parent="yeNCh0Bpv_U7AYHqmpKk-146" vertex="1">
          <mxGeometry y="330" width="340" height="32" as="geometry" />
        </mxCell>
        <mxCell id="yeNCh0Bpv_U7AYHqmpKk-155" value="+ getListLibrosEvento(): List&lt;LibrosEvento&gt;" style="text;strokeColor=none;fillColor=none;align=left;verticalAlign=middle;spacingLeft=4;spacingRight=4;overflow=hidden;rotatable=0;points=[[0,0.5],[1,0.5]];portConstraint=eastwest;" parent="yeNCh0Bpv_U7AYHqmpKk-146" vertex="1">
          <mxGeometry y="362" width="340" height="32" as="geometry" />
        </mxCell>
        <mxCell id="yeNCh0Bpv_U7AYHqmpKk-156" value="+ setListLibrosEvento(type List&lt;LibrosEvento&gt;): void" style="text;strokeColor=none;fillColor=none;align=left;verticalAlign=middle;spacingLeft=4;spacingRight=4;overflow=hidden;rotatable=0;points=[[0,0.5],[1,0.5]];portConstraint=eastwest;" parent="yeNCh0Bpv_U7AYHqmpKk-146" vertex="1">
          <mxGeometry y="394" width="340" height="32" as="geometry" />
        </mxCell>
        <mxCell id="yeNCh0Bpv_U7AYHqmpKk-157" value="+ agregarLibroRelacionado()" style="text;strokeColor=none;fillColor=none;align=left;verticalAlign=middle;spacingLeft=4;spacingRight=4;overflow=hidden;rotatable=0;points=[[0,0.5],[1,0.5]];portConstraint=eastwest;" parent="yeNCh0Bpv_U7AYHqmpKk-146" vertex="1">
          <mxGeometry y="426" width="340" height="32" as="geometry" />
        </mxCell>
        <mxCell id="yeNCh0Bpv_U7AYHqmpKk-158" value="+ notificarParticipantes()" style="text;strokeColor=none;fillColor=none;align=left;verticalAlign=middle;spacingLeft=4;spacingRight=4;overflow=hidden;rotatable=0;points=[[0,0.5],[1,0.5]];portConstraint=eastwest;" parent="yeNCh0Bpv_U7AYHqmpKk-146" vertex="1">
          <mxGeometry y="458" width="340" height="32" as="geometry" />
        </mxCell>
        <mxCell id="yeNCh0Bpv_U7AYHqmpKk-162" value="Comentario" style="swimlane;align=center;verticalAlign=middle;childLayout=stackLayout;horizontal=1;startSize=26;horizontalStack=0;resizeParent=1;resizeParentMax=0;resizeLast=0;collapsible=1;marginBottom=0;fillColor=#b1ddf0;strokeColor=#10739e;" parent="1" vertex="1">
          <mxGeometry x="880" y="1230" width="260" height="392" as="geometry">
            <mxRectangle x="320" y="80" width="220" height="30" as="alternateBounds" />
          </mxGeometry>
        </mxCell>
        <mxCell id="yeNCh0Bpv_U7AYHqmpKk-163" value="- Usuario que Comentó: Texto/String" style="text;strokeColor=none;fillColor=none;align=left;verticalAlign=middle;spacingLeft=4;spacingRight=4;overflow=hidden;rotatable=0;points=[[0,0.5],[1,0.5]];portConstraint=eastwest;" parent="yeNCh0Bpv_U7AYHqmpKk-162" vertex="1">
          <mxGeometry y="26" width="260" height="34" as="geometry" />
        </mxCell>
        <mxCell id="yeNCh0Bpv_U7AYHqmpKk-164" value="- Libro Comentado: Texto/String" style="text;strokeColor=none;fillColor=none;align=left;verticalAlign=middle;spacingLeft=4;spacingRight=4;overflow=hidden;rotatable=0;points=[[0,0.5],[1,0.5]];portConstraint=eastwest;" parent="yeNCh0Bpv_U7AYHqmpKk-162" vertex="1">
          <mxGeometry y="60" width="260" height="34" as="geometry" />
        </mxCell>
        <mxCell id="yeNCh0Bpv_U7AYHqmpKk-175" value="- Comentario: Texto/String" style="text;strokeColor=none;fillColor=none;align=left;verticalAlign=middle;spacingLeft=4;spacingRight=4;overflow=hidden;rotatable=0;points=[[0,0.5],[1,0.5]];portConstraint=eastwest;" parent="yeNCh0Bpv_U7AYHqmpKk-162" vertex="1">
          <mxGeometry y="94" width="260" height="34" as="geometry" />
        </mxCell>
        <mxCell id="yeNCh0Bpv_U7AYHqmpKk-166" value="" style="line;strokeWidth=1;fillColor=none;align=left;verticalAlign=middle;spacingTop=-1;spacingLeft=3;spacingRight=3;rotatable=0;labelPosition=right;points=[];portConstraint=eastwest;strokeColor=inherit;" parent="yeNCh0Bpv_U7AYHqmpKk-162" vertex="1">
          <mxGeometry y="128" width="260" height="8" as="geometry" />
        </mxCell>
        <mxCell id="yeNCh0Bpv_U7AYHqmpKk-167" value="+ getUsuarioComentó(): String" style="text;strokeColor=none;fillColor=none;align=left;verticalAlign=middle;spacingLeft=4;spacingRight=4;overflow=hidden;rotatable=0;points=[[0,0.5],[1,0.5]];portConstraint=eastwest;" parent="yeNCh0Bpv_U7AYHqmpKk-162" vertex="1">
          <mxGeometry y="136" width="260" height="32" as="geometry" />
        </mxCell>
        <mxCell id="yeNCh0Bpv_U7AYHqmpKk-168" value="+ setUsuarioComentó(type String): void" style="text;strokeColor=none;fillColor=none;align=left;verticalAlign=middle;spacingLeft=4;spacingRight=4;overflow=hidden;rotatable=0;points=[[0,0.5],[1,0.5]];portConstraint=eastwest;" parent="yeNCh0Bpv_U7AYHqmpKk-162" vertex="1">
          <mxGeometry y="168" width="260" height="32" as="geometry" />
        </mxCell>
        <mxCell id="yeNCh0Bpv_U7AYHqmpKk-169" value="+ getLibroComentado(): String" style="text;strokeColor=none;fillColor=none;align=left;verticalAlign=middle;spacingLeft=4;spacingRight=4;overflow=hidden;rotatable=0;points=[[0,0.5],[1,0.5]];portConstraint=eastwest;" parent="yeNCh0Bpv_U7AYHqmpKk-162" vertex="1">
          <mxGeometry y="200" width="260" height="32" as="geometry" />
        </mxCell>
        <mxCell id="yeNCh0Bpv_U7AYHqmpKk-170" value="+ setLibroComentado(type String): void" style="text;strokeColor=none;fillColor=none;align=left;verticalAlign=middle;spacingLeft=4;spacingRight=4;overflow=hidden;rotatable=0;points=[[0,0.5],[1,0.5]];portConstraint=eastwest;" parent="yeNCh0Bpv_U7AYHqmpKk-162" vertex="1">
          <mxGeometry y="232" width="260" height="32" as="geometry" />
        </mxCell>
        <mxCell id="yeNCh0Bpv_U7AYHqmpKk-171" value="+ getComentario(): String" style="text;strokeColor=none;fillColor=none;align=left;verticalAlign=middle;spacingLeft=4;spacingRight=4;overflow=hidden;rotatable=0;points=[[0,0.5],[1,0.5]];portConstraint=eastwest;" parent="yeNCh0Bpv_U7AYHqmpKk-162" vertex="1">
          <mxGeometry y="264" width="260" height="32" as="geometry" />
        </mxCell>
        <mxCell id="yeNCh0Bpv_U7AYHqmpKk-172" value="+ setComentario(type String): void" style="text;strokeColor=none;fillColor=none;align=left;verticalAlign=middle;spacingLeft=4;spacingRight=4;overflow=hidden;rotatable=0;points=[[0,0.5],[1,0.5]];portConstraint=eastwest;" parent="yeNCh0Bpv_U7AYHqmpKk-162" vertex="1">
          <mxGeometry y="296" width="260" height="32" as="geometry" />
        </mxCell>
        <mxCell id="yeNCh0Bpv_U7AYHqmpKk-173" value="+ agregarComentario()" style="text;strokeColor=none;fillColor=none;align=left;verticalAlign=middle;spacingLeft=4;spacingRight=4;overflow=hidden;rotatable=0;points=[[0,0.5],[1,0.5]];portConstraint=eastwest;" parent="yeNCh0Bpv_U7AYHqmpKk-162" vertex="1">
          <mxGeometry y="328" width="260" height="32" as="geometry" />
        </mxCell>
        <mxCell id="yeNCh0Bpv_U7AYHqmpKk-174" value="+ eliminarComentario()" style="text;strokeColor=none;fillColor=none;align=left;verticalAlign=middle;spacingLeft=4;spacingRight=4;overflow=hidden;rotatable=0;points=[[0,0.5],[1,0.5]];portConstraint=eastwest;" parent="yeNCh0Bpv_U7AYHqmpKk-162" vertex="1">
          <mxGeometry y="360" width="260" height="32" as="geometry" />
        </mxCell>
        <mxCell id="yeNCh0Bpv_U7AYHqmpKk-176" value="1" style="endArrow=open;html=1;endSize=12;startArrow=diamondThin;startSize=14;startFill=0;edgeStyle=orthogonalEdgeStyle;align=left;verticalAlign=bottom;rounded=0;exitX=0;exitY=0.5;exitDx=0;exitDy=0;entryX=-0.002;entryY=0.018;entryDx=0;entryDy=0;entryPerimeter=0;" parent="1" source="yeNCh0Bpv_U7AYHqmpKk-73" target="yeNCh0Bpv_U7AYHqmpKk-1" edge="1">
          <mxGeometry x="-1" y="3" relative="1" as="geometry">
            <mxPoint x="846.94" y="105.5" as="sourcePoint" />
            <mxPoint x="829.94" y="450" as="targetPoint" />
            <Array as="points">
              <mxPoint x="799" y="83" />
            </Array>
          </mxGeometry>
        </mxCell>
        <mxCell id="yeNCh0Bpv_U7AYHqmpKk-177" value="1" style="endArrow=open;html=1;endSize=12;startArrow=diamondThin;startSize=14;startFill=0;edgeStyle=orthogonalEdgeStyle;align=left;verticalAlign=bottom;rounded=0;exitX=0;exitY=0.5;exitDx=0;exitDy=0;entryX=-0.003;entryY=0.029;entryDx=0;entryDy=0;entryPerimeter=0;" parent="1" source="yeNCh0Bpv_U7AYHqmpKk-80" target="yeNCh0Bpv_U7AYHqmpKk-28" edge="1">
          <mxGeometry x="-1" y="3" relative="1" as="geometry">
            <mxPoint x="1029.94" y="93" as="sourcePoint" />
            <mxPoint x="808.94" y="570" as="targetPoint" />
            <Array as="points">
              <mxPoint x="860" y="117" />
              <mxPoint x="860" y="510" />
              <mxPoint x="1480" y="510" />
              <mxPoint x="1480" y="561" />
            </Array>
          </mxGeometry>
        </mxCell>
        <mxCell id="yeNCh0Bpv_U7AYHqmpKk-178" value="1" style="endArrow=open;html=1;endSize=12;startArrow=diamondThin;startSize=14;startFill=0;edgeStyle=orthogonalEdgeStyle;align=left;verticalAlign=bottom;rounded=0;exitX=0;exitY=0.5;exitDx=0;exitDy=0;entryX=0.001;entryY=0.022;entryDx=0;entryDy=0;entryPerimeter=0;" parent="1" source="yeNCh0Bpv_U7AYHqmpKk-81" target="yeNCh0Bpv_U7AYHqmpKk-55" edge="1">
          <mxGeometry x="-1" y="3" relative="1" as="geometry">
            <mxPoint x="1580" y="104.93" as="sourcePoint" />
            <mxPoint x="1719" y="548.93" as="targetPoint" />
            <Array as="points">
              <mxPoint x="930" y="150" />
              <mxPoint x="930" y="490" />
              <mxPoint x="2310" y="490" />
              <mxPoint x="2310" y="560" />
            </Array>
          </mxGeometry>
        </mxCell>
        <mxCell id="yeNCh0Bpv_U7AYHqmpKk-179" value="1" style="endArrow=open;html=1;endSize=12;startArrow=diamondThin;startSize=14;startFill=0;edgeStyle=orthogonalEdgeStyle;align=left;verticalAlign=bottom;rounded=0;exitX=1;exitY=0.5;exitDx=0;exitDy=0;" parent="1" source="yeNCh0Bpv_U7AYHqmpKk-116" edge="1">
          <mxGeometry x="-1" y="3" relative="1" as="geometry">
            <mxPoint x="1030" y="93" as="sourcePoint" />
            <mxPoint x="800" y="560" as="targetPoint" />
            <Array as="points">
              <mxPoint x="680" y="217" />
              <mxPoint x="680" y="560" />
            </Array>
          </mxGeometry>
        </mxCell>
        <mxCell id="yeNCh0Bpv_U7AYHqmpKk-180" value="1" style="endArrow=open;html=1;endSize=12;startArrow=diamondThin;startSize=14;startFill=0;edgeStyle=orthogonalEdgeStyle;align=left;verticalAlign=bottom;rounded=0;exitX=1;exitY=0.5;exitDx=0;exitDy=0;" parent="1" source="yeNCh0Bpv_U7AYHqmpKk-135" edge="1">
          <mxGeometry x="-1" y="3" relative="1" as="geometry">
            <mxPoint x="667" y="696" as="sourcePoint" />
            <mxPoint x="800" y="560" as="targetPoint" />
            <Array as="points">
              <mxPoint x="740" y="717" />
              <mxPoint x="740" y="580" />
              <mxPoint x="800" y="580" />
            </Array>
          </mxGeometry>
        </mxCell>
        <mxCell id="yeNCh0Bpv_U7AYHqmpKk-181" value="*" style="endArrow=open;html=1;endSize=12;startArrow=diamondThin;startSize=14;startFill=0;edgeStyle=orthogonalEdgeStyle;align=left;verticalAlign=bottom;rounded=0;exitX=1;exitY=0.5;exitDx=0;exitDy=0;entryX=0;entryY=0.5;entryDx=0;entryDy=0;" parent="1" source="yeNCh0Bpv_U7AYHqmpKk-148" edge="1" target="yeNCh0Bpv_U7AYHqmpKk-9">
          <mxGeometry x="-1" y="3" relative="1" as="geometry">
            <mxPoint x="650" y="727" as="sourcePoint" />
            <mxPoint x="800" y="560" as="targetPoint" />
            <Array as="points">
              <mxPoint x="760" y="1145" />
              <mxPoint x="760" y="626" />
            </Array>
          </mxGeometry>
        </mxCell>
        <mxCell id="j7d310lMBnSI4TyxsEHY-3" value="1" style="endArrow=open;html=1;endSize=12;startArrow=diamondThin;startSize=14;startFill=0;edgeStyle=orthogonalEdgeStyle;align=left;verticalAlign=bottom;rounded=0;exitX=0;exitY=0.5;exitDx=0;exitDy=0;entryX=1.003;entryY=0.028;entryDx=0;entryDy=0;entryPerimeter=0;" edge="1" parent="1" source="yeNCh0Bpv_U7AYHqmpKk-120" target="yeNCh0Bpv_U7AYHqmpKk-28">
          <mxGeometry x="-1" y="3" relative="1" as="geometry">
            <mxPoint x="1870" y="549" as="sourcePoint" />
            <mxPoint x="2030" y="549" as="targetPoint" />
            <Array as="points">
              <mxPoint x="1580" y="1093" />
              <mxPoint x="1580" y="1010" />
              <mxPoint x="1980" y="1010" />
              <mxPoint x="1980" y="561" />
            </Array>
          </mxGeometry>
        </mxCell>
        <mxCell id="j7d310lMBnSI4TyxsEHY-5" value="*" style="endArrow=open;html=1;endSize=12;startArrow=diamondThin;startSize=14;startFill=0;edgeStyle=orthogonalEdgeStyle;align=left;verticalAlign=bottom;rounded=0;exitX=0;exitY=0.5;exitDx=0;exitDy=0;" edge="1" parent="1" source="yeNCh0Bpv_U7AYHqmpKk-164">
          <mxGeometry x="-1" y="3" relative="1" as="geometry">
            <mxPoint x="1269" y="605" as="sourcePoint" />
            <mxPoint x="1060" y="560" as="targetPoint" />
            <Array as="points">
              <mxPoint x="800" y="1307" />
              <mxPoint x="800" y="1190" />
              <mxPoint x="1120" y="1190" />
              <mxPoint x="1120" y="560" />
            </Array>
          </mxGeometry>
        </mxCell>
        <mxCell id="j7d310lMBnSI4TyxsEHY-7" value="*" style="endArrow=open;html=1;endSize=12;startArrow=diamondThin;startSize=14;startFill=0;edgeStyle=orthogonalEdgeStyle;align=left;verticalAlign=bottom;rounded=0;exitX=0;exitY=0.5;exitDx=0;exitDy=0;entryX=1;entryY=0;entryDx=0;entryDy=0;" edge="1" parent="1" source="yeNCh0Bpv_U7AYHqmpKk-122" target="yeNCh0Bpv_U7AYHqmpKk-1">
          <mxGeometry x="-1" y="3" relative="1" as="geometry">
            <mxPoint x="1290" y="1297" as="sourcePoint" />
            <mxPoint x="1060" y="560" as="targetPoint" />
            <Array as="points">
              <mxPoint x="1270" y="1127" />
              <mxPoint x="1270" y="549" />
            </Array>
          </mxGeometry>
        </mxCell>
        <mxCell id="j7d310lMBnSI4TyxsEHY-11" value="1" style="endArrow=open;html=1;endSize=12;startArrow=diamondThin;startSize=14;startFill=0;edgeStyle=orthogonalEdgeStyle;align=left;verticalAlign=bottom;rounded=0;exitX=0;exitY=0.5;exitDx=0;exitDy=0;entryX=1;entryY=0;entryDx=0;entryDy=0;" edge="1" parent="1" source="yeNCh0Bpv_U7AYHqmpKk-163" target="yeNCh0Bpv_U7AYHqmpKk-28">
          <mxGeometry x="-1" y="3" relative="1" as="geometry">
            <mxPoint x="1650" y="1103" as="sourcePoint" />
            <mxPoint x="1850" y="560" as="targetPoint" />
            <Array as="points">
              <mxPoint x="830" y="1273" />
              <mxPoint x="830" y="1210" />
              <mxPoint x="1310" y="1210" />
              <mxPoint x="1310" y="1510" />
              <mxPoint x="2020" y="1510" />
              <mxPoint x="2020" y="549" />
            </Array>
          </mxGeometry>
        </mxCell>
        <mxCell id="j7d310lMBnSI4TyxsEHY-13" value="*" style="text;html=1;strokeColor=none;fillColor=none;align=center;verticalAlign=middle;whiteSpace=wrap;rounded=0;" vertex="1" parent="1">
          <mxGeometry x="780" y="519" width="60" height="30" as="geometry" />
        </mxCell>
        <mxCell id="j7d310lMBnSI4TyxsEHY-14" value="*" style="text;html=1;strokeColor=none;fillColor=none;align=center;verticalAlign=middle;whiteSpace=wrap;rounded=0;" vertex="1" parent="1">
          <mxGeometry x="750" y="540" width="60" height="30" as="geometry" />
        </mxCell>
        <mxCell id="j7d310lMBnSI4TyxsEHY-15" value="*" style="text;html=1;strokeColor=none;fillColor=none;align=center;verticalAlign=middle;whiteSpace=wrap;rounded=0;" vertex="1" parent="1">
          <mxGeometry x="760" y="580" width="60" height="30" as="geometry" />
        </mxCell>
        <mxCell id="j7d310lMBnSI4TyxsEHY-16" value="*" style="text;html=1;strokeColor=none;fillColor=none;align=center;verticalAlign=middle;whiteSpace=wrap;rounded=0;" vertex="1" parent="1">
          <mxGeometry x="760" y="630" width="60" height="30" as="geometry" />
        </mxCell>
        <mxCell id="j7d310lMBnSI4TyxsEHY-17" value="1" style="text;html=1;strokeColor=none;fillColor=none;align=center;verticalAlign=middle;whiteSpace=wrap;rounded=0;" vertex="1" parent="1">
          <mxGeometry x="1040" y="570" width="60" height="30" as="geometry" />
        </mxCell>
        <mxCell id="j7d310lMBnSI4TyxsEHY-18" value="*" style="text;html=1;strokeColor=none;fillColor=none;align=center;verticalAlign=middle;whiteSpace=wrap;rounded=0;" vertex="1" parent="1">
          <mxGeometry x="1850" y="532" width="50" height="20" as="geometry" />
        </mxCell>
        <mxCell id="j7d310lMBnSI4TyxsEHY-19" value="1" style="text;html=1;strokeColor=none;fillColor=none;align=center;verticalAlign=middle;whiteSpace=wrap;rounded=0;" vertex="1" parent="1">
          <mxGeometry x="1059.94" y="522" width="60" height="30" as="geometry" />
        </mxCell>
        <mxCell id="j7d310lMBnSI4TyxsEHY-20" value="*" style="text;html=1;strokeColor=none;fillColor=none;align=center;verticalAlign=middle;whiteSpace=wrap;rounded=0;" vertex="1" parent="1">
          <mxGeometry x="1850" y="560" width="50" height="20" as="geometry" />
        </mxCell>
      </root>
    </mxGraphModel>
  </diagram>
</mxfile>
